<svg width="901" height="166" viewBox="0 0 901 166" fill="none" xmlns="http://www.w3.org/2000/svg">
<path d="M113.993 65.7L107.493 59.1C106.359 58.4333 105.059 58 103.593 57.8C103.526 61.2 103.493 64.5667 103.493 67.9V76.6C103.493 79.3333 103.626 81.1667 103.893 82.1C104.426 84.1667 105.659 85.2 107.593 85.2H108.593V88H83.3926V85.2H84.3926C86.3259 85.2 87.5592 84.1667 88.0926 82.1C88.3592 81.1667 88.4926 79.3333 88.4926 76.6V31.6C88.4926 28.8667 88.3592 27.0333 88.0926 26.1C87.5592 24.0333 86.3259 23 84.3926 23H83.3926V20.2H117.193C121.059 20.2 124.426 20.6667 127.293 21.6C135.959 24.5333 140.293 30.3333 140.293 39C140.293 40.9333 139.926 42.7667 139.193 44.5C136.859 49.8333 131.993 53.6 124.593 55.8C131.193 66.8667 137.126 75.1 142.393 80.5C145.393 83.6333 147.526 85.2 148.793 85.2V88H124.993C125.459 87.1333 125.693 86.3667 125.693 85.7C125.693 84.9667 124.993 83.5333 123.593 81.4C120.459 76.7333 117.259 71.5 113.993 65.7ZM103.593 53.8C106.126 54.1333 108.159 54.3 109.693 54.3C114.093 54.3 117.426 53.3 119.693 51.3C122.426 48.8333 123.793 44.8667 123.793 39.4C123.793 38.7333 123.593 37.7 123.193 36.3C122.659 34.4333 121.826 32.8 120.693 31.4C118.293 28.5333 114.726 27.1 109.993 27.1C108.126 27.1 106.259 27.2667 104.393 27.6C104.326 28.6 104.259 30.0333 104.193 31.9C104.126 33.7667 104.059 35 103.993 35.6C103.926 38.2 103.859 41.0333 103.793 44.1L103.593 53.8ZM200.6 35.7C200.6 33.1 200.434 30.9667 200.1 29.3C199.234 25.0333 197.367 22.9 194.5 22.9H192.1V20.1L217.2 20.2V23H216.2C214.734 23 213.6 23.8667 212.8 25.6C211.8 27.7333 211.3 31.4333 211.3 36.7V64.1C211.3 71.6333 208.734 77.7667 203.6 82.5C198.534 87.2333 192.134 89.6 184.4 89.6C177.267 89.6 171.2 87.4667 166.2 83.2C160.667 78.5333 157.9 72.1667 157.9 64.1V31.6C157.9 28.8667 157.767 27.0333 157.5 26.1C156.967 24.0333 155.734 23 153.8 23H152.8V20.2H178.5V23H177.5C175.634 23 174.4 24.0333 173.8 26.1C173.6 26.9667 173.467 28.8 173.4 31.6C173.134 43.9333 173 55.2667 173 65.6C173 69.1333 173.934 72.2667 175.8 75C177.734 77.6667 180.4 79.5667 183.8 80.7C184.734 81.0333 185.867 81.2 187.2 81.2C188.4 81.2 189.6 80.9667 190.8 80.5C192.667 79.8333 194.334 78.8 195.8 77.4C199 74.2667 200.6 69.9667 200.6 64.5V35.7ZM270.968 21.2V36C269.235 33.6667 267.202 31.7333 264.868 30.2C262.868 28.8667 260.602 27.8 258.068 27C255.935 26.3333 253.668 26 251.268 26C248.602 26 246.168 26.5667 243.968 27.7C242.902 28.2333 242.235 28.6333 241.968 28.9C241.768 29.1 241.068 30 239.868 31.6C239.468 32.1333 239.202 32.9 239.068 33.9C238.868 34.9667 238.868 35.7667 239.068 36.3C239.802 38.5 240.468 39.9 241.068 40.5C243.135 42.0333 244.868 43.2 246.268 44C249.268 45.4 251.668 46.4333 253.468 47.1C254.468 47.5667 256.335 48.2 259.068 49C261.402 49.6667 263.035 50.3 263.968 50.9C271.502 55.6333 275.268 61.6667 275.268 69C275.268 74.7333 272.835 79.6 267.968 83.6C263.102 87.5333 256.868 89.5 249.268 89.5C245.202 89.5 240.635 89.0333 235.568 88.1C233.502 87.3667 232.002 86.7333 231.068 86.2C230.535 86.0667 229.902 86.1 229.168 86.3C228.235 86.5667 227.702 86.7 227.568 86.7V77.2L227.368 69.5C229.968 71.8333 231.668 73.3667 232.468 74.1C234.002 75.8333 235.835 77.1667 237.968 78.1C240.568 79.3 242.402 80.0333 243.468 80.3C246.735 81.1667 248.868 81.6 249.868 81.6C253.735 81.6 256.602 80.7667 258.468 79.1C260.135 77.5667 261.335 75.8 262.068 73.8C262.535 72.5333 262.502 71.3 261.968 70.1C261.568 69.1667 260.402 67.8 258.468 66C256.268 64.6667 254.468 63.7 253.068 63.1C250.202 62.0333 247.935 61.3 246.268 60.9C240.202 58.1667 235.835 55.4667 233.168 52.8C229.502 49.1333 227.668 44.4333 227.668 38.7C227.668 33.7 229.735 29.2 233.868 25.2C238.402 20.8 244.602 18.6 252.468 18.6C255.535 18.6 259.335 19.0333 263.868 19.9C265.935 20.6333 267.402 21.2667 268.268 21.8C268.802 21.9333 269.368 21.8667 269.968 21.6C270.568 21.3333 270.902 21.2 270.968 21.2ZM328.36 28.8C326.226 28.7333 322.76 28.6333 317.96 28.5C317.893 31.1667 317.826 34.1 317.76 37.3C317.626 41.7667 317.526 50.7667 317.46 64.3L317.36 76.6C317.36 79.3333 317.493 81.1667 317.76 82.1C318.293 84.1667 319.526 85.2 321.46 85.2H322.46V88H297.26V85.2H298.26C300.193 85.2 301.426 84.1667 301.96 82.1C302.226 81.1667 302.36 79.3333 302.36 76.6L302.26 28.5C300.926 28.5667 298.16 28.6 293.96 28.6C291.093 28.6 289.093 28.7 287.96 28.9C286.293 29.1667 284.626 29.8667 282.96 31C282.226 31.4667 281.66 31.9 281.26 32.3C280.593 32.9667 280.26 33.6667 280.26 34.4L280.16 30.1V20.2H339.76L339.66 26.7V35C337.593 31.4 335.326 29.4333 332.86 29.1L328.36 28.8ZM366.486 72.8C366.486 74.4667 366.586 77.1667 366.786 80.9C370.852 80.8333 373.952 80.8 376.086 80.8C381.086 80.8 384.386 80.0333 385.986 78.5C387.252 77.2333 388.086 76.2 388.486 75.4C389.019 74.3333 389.286 72.7333 389.286 70.6C389.286 69.6 389.019 68.2333 388.486 66.5C387.952 64.7 386.986 63.0333 385.586 61.5C382.519 58.2333 377.786 56.6 371.386 56.6H366.486C366.419 60.1333 366.386 63.6667 366.386 67.2C366.386 68.3333 366.419 69.2667 366.486 70C366.486 70.6667 366.486 71.6 366.486 72.8ZM366.686 49H374.286C380.352 49 383.952 46.2667 385.086 40.8C385.286 39.8667 385.386 38.8 385.386 37.6C385.386 37.0667 385.152 36 384.686 34.4C384.286 32.8 383.586 31.4 382.586 30.2C380.386 27.5333 377.086 26.2 372.686 26.2C371.086 26.2 369.119 26.3667 366.786 26.7C366.719 29.5667 366.686 37 366.686 49ZM346.186 88V85.2H347.186C349.119 85.2 350.352 84.1667 350.886 82.1C351.152 81.1667 351.286 79.3333 351.286 76.6V31.6C351.286 28.8667 351.152 27.0333 350.886 26.1C350.352 24.0333 349.119 23 347.186 23H346.186V20.2H375.486C380.019 20.2 383.919 20.6667 387.186 21.6C396.452 24.2667 401.086 29.5 401.086 37.3C401.086 41.9 399.252 45.5333 395.586 48.2C392.452 50.4 388.419 51.6333 383.486 51.9V52.7C387.486 52.9667 390.886 53.6333 393.686 54.7C401.552 57.7667 405.486 63.1333 405.486 70.8C405.486 76.1333 403.519 80.2333 399.586 83.1C395.052 86.3667 387.986 88 378.386 88H346.186ZM559.25 21.2V36C557.516 33.6667 555.483 31.7333 553.15 30.2C551.15 28.8667 548.883 27.8 546.35 27C544.216 26.3333 541.95 26 539.55 26C536.883 26 534.45 26.5667 532.25 27.7C531.183 28.2333 530.516 28.6333 530.25 28.9C530.05 29.1 529.35 30 528.15 31.6C527.75 32.1333 527.483 32.9 527.35 33.9C527.15 34.9667 527.15 35.7667 527.35 36.3C528.083 38.5 528.75 39.9 529.35 40.5C531.416 42.0333 533.15 43.2 534.55 44C537.55 45.4 539.95 46.4333 541.75 47.1C542.75 47.5667 544.616 48.2 547.35 49C549.683 49.6667 551.316 50.3 552.25 50.9C559.783 55.6333 563.55 61.6667 563.55 69C563.55 74.7333 561.116 79.6 556.25 83.6C551.383 87.5333 545.15 89.5 537.55 89.5C533.483 89.5 528.916 89.0333 523.85 88.1C521.783 87.3667 520.283 86.7333 519.35 86.2C518.816 86.0667 518.183 86.1 517.45 86.3C516.516 86.5667 515.983 86.7 515.85 86.7V77.2L515.65 69.5C518.25 71.8333 519.95 73.3667 520.75 74.1C522.283 75.8333 524.116 77.1667 526.25 78.1C528.85 79.3 530.683 80.0333 531.75 80.3C535.016 81.1667 537.15 81.6 538.15 81.6C542.016 81.6 544.883 80.7667 546.75 79.1C548.416 77.5667 549.616 75.8 550.35 73.8C550.816 72.5333 550.783 71.3 550.25 70.1C549.85 69.1667 548.683 67.8 546.75 66C544.55 64.6667 542.75 63.7 541.35 63.1C538.483 62.0333 536.216 61.3 534.55 60.9C528.483 58.1667 524.116 55.4667 521.45 52.8C517.783 49.1333 515.95 44.4333 515.95 38.7C515.95 33.7 518.016 29.2 522.15 25.2C526.683 20.8 532.883 18.6 540.75 18.6C543.816 18.6 547.616 19.0333 552.15 19.9C554.216 20.6333 555.683 21.2667 556.55 21.8C557.083 21.9333 557.65 21.8667 558.25 21.6C558.85 21.3333 559.183 21.2 559.25 21.2ZM616.641 28.8C614.508 28.7333 611.041 28.6333 606.241 28.5C606.174 31.1667 606.108 34.1 606.041 37.3C605.908 41.7667 605.808 50.7667 605.741 64.3L605.641 76.6C605.641 79.3333 605.774 81.1667 606.041 82.1C606.574 84.1667 607.808 85.2 609.741 85.2H610.741V88H585.541V85.2H586.541C588.474 85.2 589.708 84.1667 590.241 82.1C590.508 81.1667 590.641 79.3333 590.641 76.6L590.541 28.5C589.208 28.5667 586.441 28.6 582.241 28.6C579.374 28.6 577.374 28.7 576.241 28.9C574.574 29.1667 572.908 29.8667 571.241 31C570.508 31.4667 569.941 31.9 569.541 32.3C568.874 32.9667 568.541 33.6667 568.541 34.4L568.441 30.1V20.2H628.041L627.941 26.7V35C625.874 31.4 623.608 29.4333 621.141 29.1L616.641 28.8ZM673.567 59.2L668.867 57.6L654.667 58C654.6 61.7333 654.567 64.5 654.567 66.3V72.5C654.567 75.9667 655.667 78.3 657.867 79.5C659.467 80.3667 662.167 80.8 665.967 80.8C669.567 80.8 672.733 80.3667 675.467 79.5C680.6 77.8333 684.3 74.9 686.567 70.7C686.833 70.1667 687.267 69.6667 687.867 69.2C688.267 68.8667 688.533 68.3 688.667 67.5H691.467L690.467 88H634.467V85.2H635.467C637.4 85.2 638.633 84.1667 639.167 82.1C639.433 81.1667 639.567 79.3333 639.567 76.6V31.6C639.567 28.8667 639.433 27.0333 639.167 26.1C638.633 24.0333 637.4 23 635.467 23H634.467V20.2H686.467L686.967 39.8H684.167C684.033 37.8 683.5 36.3333 682.567 35.4C681.3 34.3333 680.033 33.3 678.767 32.3C675.5 29.5 670.633 28.1 664.167 28.1H655.167C655.033 34.3 654.967 37.9 654.967 38.9C654.967 43.5 654.967 46.6667 654.967 48.4H660.067C665.067 48.4 667.833 48.3333 668.367 48.2C668.9 48 669.267 47.9 669.467 47.9C669.533 47.9 669.567 47.9 669.567 47.9C669.633 47.9 669.667 47.9 669.667 47.9C669.667 47.9 669.7 47.9 669.767 47.9L671.667 47.2L673.567 45.7V59.2ZM730.008 65.7L723.508 59.1C722.375 58.4333 721.075 58 719.608 57.8C719.542 61.2 719.508 64.5667 719.508 67.9V76.6C719.508 79.3333 719.642 81.1667 719.908 82.1C720.442 84.1667 721.675 85.2 723.608 85.2H724.608V88H699.408V85.2H700.408C702.342 85.2 703.575 84.1667 704.108 82.1C704.375 81.1667 704.508 79.3333 704.508 76.6V31.6C704.508 28.8667 704.375 27.0333 704.108 26.1C703.575 24.0333 702.342 23 700.408 23H699.408V20.2H733.208C737.075 20.2 740.442 20.6667 743.308 21.6C751.975 24.5333 756.308 30.3333 756.308 39C756.308 40.9333 755.942 42.7667 755.208 44.5C752.875 49.8333 748.008 53.6 740.608 55.8C747.208 66.8667 753.142 75.1 758.408 80.5C761.408 83.6333 763.542 85.2 764.808 85.2V88H741.008C741.475 87.1333 741.708 86.3667 741.708 85.7C741.708 84.9667 741.008 83.5333 739.608 81.4C736.475 76.7333 733.275 71.5 730.008 65.7ZM719.608 53.8C722.142 54.1333 724.175 54.3 725.708 54.3C730.108 54.3 733.442 53.3 735.708 51.3C738.442 48.8333 739.808 44.8667 739.808 39.4C739.808 38.7333 739.608 37.7 739.208 36.3C738.675 34.4333 737.842 32.8 736.708 31.4C734.308 28.5333 730.742 27.1 726.008 27.1C724.142 27.1 722.275 27.2667 720.408 27.6C720.342 28.6 720.275 30.0333 720.208 31.9C720.142 33.7667 720.075 35 720.008 35.6C719.942 38.2 719.875 41.0333 719.808 44.1L719.608 53.8ZM814.816 21.2V36C813.083 33.6667 811.049 31.7333 808.716 30.2C806.716 28.8667 804.449 27.8 801.916 27C799.783 26.3333 797.516 26 795.116 26C792.449 26 790.016 26.5667 787.816 27.7C786.749 28.2333 786.083 28.6333 785.816 28.9C785.616 29.1 784.916 30 783.716 31.6C783.316 32.1333 783.049 32.9 782.916 33.9C782.716 34.9667 782.716 35.7667 782.916 36.3C783.649 38.5 784.316 39.9 784.916 40.5C786.983 42.0333 788.716 43.2 790.116 44C793.116 45.4 795.516 46.4333 797.316 47.1C798.316 47.5667 800.183 48.2 802.916 49C805.249 49.6667 806.883 50.3 807.816 50.9C815.349 55.6333 819.116 61.6667 819.116 69C819.116 74.7333 816.683 79.6 811.816 83.6C806.949 87.5333 800.716 89.5 793.116 89.5C789.049 89.5 784.483 89.0333 779.416 88.1C777.349 87.3667 775.849 86.7333 774.916 86.2C774.383 86.0667 773.749 86.1 773.016 86.3C772.083 86.5667 771.549 86.7 771.416 86.7V77.2L771.216 69.5C773.816 71.8333 775.516 73.3667 776.316 74.1C777.849 75.8333 779.683 77.1667 781.816 78.1C784.416 79.3 786.249 80.0333 787.316 80.3C790.583 81.1667 792.716 81.6 793.716 81.6C797.583 81.6 800.449 80.7667 802.316 79.1C803.983 77.5667 805.183 75.8 805.916 73.8C806.383 72.5333 806.349 71.3 805.816 70.1C805.416 69.1667 804.249 67.8 802.316 66C800.116 64.6667 798.316 63.7 796.916 63.1C794.049 62.0333 791.783 61.3 790.116 60.9C784.049 58.1667 779.683 55.4667 777.016 52.8C773.349 49.1333 771.516 44.4333 771.516 38.7C771.516 33.7 773.583 29.2 777.716 25.2C782.249 20.8 788.449 18.6 796.316 18.6C799.383 18.6 803.183 19.0333 807.716 19.9C809.783 20.6333 811.249 21.2667 812.116 21.8C812.649 21.9333 813.216 21.8667 813.816 21.6C814.416 21.3333 814.749 21.2 814.816 21.2Z" fill="white"/>
<path fill-rule="evenodd" clip-rule="evenodd" d="M464.171 32.6874C480.731 32.6874 494.239 46.1941 494.239 62.7546C494.239 79.317 480.731 92.8237 464.171 92.8237C447.609 92.8237 434.102 79.317 434.102 62.7546C434.102 46.1941 447.609 32.6874 464.171 32.6874Z" fill="black"/>
<path d="M507 66.5C507 77.5065 502.575 88.0622 494.698 95.8449C486.822 103.628 476.139 108 465 108C453.861 108 443.178 103.628 435.302 95.8449C427.425 88.0622 423 77.5065 423 66.5L465 66.5H507Z" fill="#6835FF"/>
<path d="M419 20L443 20V22L441.788 22.5977C440.081 23.4398 439 25.1783 439 27.0819V69H423V27.0819C423 25.1783 421.919 23.4398 420.212 22.5977L419 22V20Z" fill="#6835FF"/>
<path d="M487 20L511 20V21.9184L509.862 22.4569C508.114 23.2836 507 25.0435 507 26.9766V67H491V26.9766C491 25.0435 489.886 23.2836 488.138 22.4569L487 21.9184V20Z" fill="#6835FF"/>
<path d="M494.796 69.8811C496.049 69.4829 497.101 69.3594 498.377 70.332C500.238 71.7492 502.712 74.0928 505.513 73.9956C506.521 73.9615 507.596 73.7949 507.596 72.7315C507.597 70.6923 503.947 69.2661 503.243 67.4931C503.527 67.3098 504.482 67.0673 504.876 67.0782C505.814 66.9701 508.99 68.0078 511.238 67.9248C512.507 67.8785 513.54 67.6585 513.617 66.3204C513.735 64.3313 511.756 63.3072 509.398 62.5462C506.639 61.6545 503.342 61.2454 502.033 60.9341C502.559 59.6507 503.974 58.3679 505.236 57.1791C506.456 56.1286 509.866 54.5866 509.911 52.6728C509.944 51.3476 508.925 51.1546 507.848 51.089C505.583 50.95 503.88 51.6422 501.94 52.6374C500.087 53.5876 498.289 54.7597 496.315 55.504C495.801 55.6834 494.914 55.7902 494.032 55.7986C493.094 55.8082 492.161 55.7072 491.695 55.4654C490.784 54.9025 490.362 52.6734 490.205 51.659C489.487 47.0124 485.515 42.6444 481.542 40.4887C478.473 38.8238 476.006 38.5575 473.117 38.2461C472.053 38.1316 470.961 37.9058 469.898 37.8499C469.897 36.5633 469.285 35.3088 468.92 34.075C468.33 32.0833 467.156 30.4056 466.49 28.4384C465.618 25.86 466.693 23.1749 465.879 20.5155C466.188 20.5091 466.772 20.3006 466.781 20.0202C466.801 19.4856 466.213 18.6898 466.518 18.5483C469.813 17.795 471.593 17.4096 472.702 15.5576L472.7 15.5563C472.864 15.1156 473.057 14.8866 473.221 14.4453C473.263 13.9416 473.144 13.6798 472.911 13.5826C472.146 13.2649 470.596 14.0973 469.37 14.0053C469.158 13.9944 468.95 13.9373 468.762 13.8379C468.574 13.7386 468.41 13.5995 468.281 13.4302C466.558 11.7068 467.409 8.78298 464.2 8.67427C461.248 8.57391 457.942 10.2774 456.012 12.2472C455.408 13.014 454.877 12.8699 454.529 12.8699C453.608 12.8705 452.778 12.7644 451.988 12.9509C450.834 13.2237 449.812 13.8059 448.882 14.9387C448.663 15.2065 448.408 15.4424 448.124 15.6393C445.227 17.667 444.645 21.8015 442.896 24.6957C441.99 26.1952 440.89 27.844 439.531 28.962C437.862 30.3348 437.258 31.9746 436.292 33.7932C434.915 36.3844 435.209 38.0242 436.247 40.4482C437.042 41.5662 437.243 42.5833 437.658 44.0307C435.594 45.4653 432.676 47.6267 431.476 49.8249C430.101 52.3441 427.308 53.4666 425.346 55.403C424.641 55.9086 423.806 56.5435 423.101 57.0492C419.968 55.4596 416.918 53.6654 413.696 52.1922C412.758 51.7632 408.02 49.5052 405.354 49.6731C404.118 49.7516 403.175 50.7686 403.948 51.767C405.087 53.2415 407.676 54.2547 408.649 55.6204C406.921 57.0357 403.1 57.989 403.306 59.9093C403.374 60.5474 404.536 61.1914 405.863 61.1502C407.483 61.1007 408.853 61.026 409.477 61.2377C409.443 62.6684 407.448 63.7388 406.661 64.8434C406.276 65.3825 406.162 65.9557 406.671 66.6324C407.574 67.8978 411.636 66.4002 412.689 66.0798C413.858 66.6292 416.693 68.7411 417.899 68.5514C418.328 68.6453 418.801 68.4382 419.23 68.534C421.517 69.5453 422.468 72.2304 424.937 72.7077C425.435 72.8042 425.882 73.0178 426.344 72.6711C427.627 71.7955 427.447 70.2889 426.724 68.4922C427.793 68.1667 429.451 67.7408 430.342 67.0975V67.0988C431.651 66.1525 433.117 65.4507 434.465 64.5623C435.601 63.8122 436.635 63.6147 437.942 63.3445C438.043 64.6099 438.341 65.7833 438.802 66.9644C439.422 68.5578 439.909 70.4118 440.76 71.876C442.962 75.6682 445.911 79.7828 449.79 82.0131L449.645 82.3231L449.336 82.9793H449.338C448.855 83.6779 446.248 85.4631 445.661 86.4763C450.773 90.477 457.201 92.8668 464.171 92.8668C478.366 92.8668 490.321 82.9562 493.471 69.7003L494.749 70.1789L494.796 69.8811Z" fill="white"/>
<path d="M451.884 32.3703C452 31.9791 453.096 33.0052 453.893 32.9383C454.16 32.9164 454.415 32.7646 454.563 32.3458C454.718 31.9039 454.936 31.6575 455.109 31.6684C455.246 31.6774 455.291 32.2969 455.149 32.8038C454.988 33.3783 454.269 34.1059 453.65 34.0737C452.916 34.0358 451.691 33.0161 451.884 32.3703ZM458.587 24.1096C458.687 24.3805 458.669 24.6905 458.615 25.3821C458.561 26.0736 457.981 27.0116 457.559 26.9871C457.137 26.9627 456.616 26.0267 456.712 24.982C456.791 24.1289 457.304 23.0212 458.306 23.1157C458.644 23.1479 458.964 23.4586 459.16 23.8723C459.358 24.2859 459.428 24.8031 459.405 25.0875C459.396 25.2032 459.34 25.2213 459.309 25.2245C459.26 25.2296 459.219 25.1646 459.15 24.991C459.033 24.697 458.923 24.2402 458.587 24.1096ZM451.624 23.2187C451.746 23.4187 451.859 23.6387 451.859 24.3309C451.859 25.0231 451.313 26.1869 450.882 26.2016C450.451 26.2164 449.834 25.3145 449.834 24.2447C449.834 23.3711 450.221 22.2003 451.279 22.2003C451.626 22.2003 451.98 22.4866 452.218 22.888C452.456 23.2901 452.575 23.8041 452.559 24.0993C452.56 24.2029 452.437 24.1823 452.409 24.0993C452.351 23.9721 452.284 23.8493 452.207 23.732C452.048 23.4901 451.832 23.2444 451.624 23.2187ZM452.406 37.7714C453.297 37.7714 454.025 38.8509 454.025 40.1735C454.025 41.4968 453.297 42.5756 452.406 42.5756C451.514 42.5756 450.787 41.4968 450.787 40.1735C450.787 38.8515 451.514 37.7714 452.406 37.7714ZM426.589 65.9081C427.005 65.7974 426.568 67.304 426.629 67.5852C427.735 67.3098 429.371 66.9406 430.23 66.0824C432.864 64.1274 435.498 62.9347 438.132 62.0193C438.728 61.9074 441.689 61.4661 441.45 62.0669C441.101 62.4426 440.207 62.7791 439.357 62.9437C439.341 64.8408 439.943 67.0383 440.957 68.81C442.756 73.3144 446.442 77.7294 450.579 80.3379C452.81 81.7442 458.325 83.9752 463.292 85.1151C467.74 86.1341 470.043 85.9482 471.247 86.3624C471.506 87.202 468.606 86.8584 466.756 86.7278C461.42 86.3496 453.192 83.4007 450.961 82.2235C450.214 83.9977 447.902 85.449 446.511 86.7131C446.162 87.0308 445.812 87.3486 445.583 86.9781C445.118 86.2254 448.758 83.8208 449.338 82.9813H449.336L449.791 82.015C445.911 79.7847 442.963 75.6702 440.761 71.8779C439.91 70.4144 439.423 68.5598 438.802 66.9663C438.342 65.7852 438.043 64.6118 437.942 63.3465C436.636 63.6166 435.601 63.8141 434.465 64.5642C433.117 65.4526 431.651 66.1551 430.342 67.1008V67.0995C429.452 67.7428 427.794 68.1686 426.724 68.4941C427.448 70.2909 427.628 71.7975 426.345 72.673C425.883 73.0198 425.436 72.8062 424.938 72.7097C422.47 72.2324 421.519 69.5472 419.231 68.536C418.801 68.4407 418.329 68.6479 417.9 68.5533C416.693 68.7431 413.858 66.6311 412.69 66.0818C411.636 66.4021 407.574 67.8997 406.671 66.6344C406.163 65.957 406.276 65.3844 406.662 64.8453C407.449 63.7408 409.443 62.6703 409.477 61.2396C408.854 61.028 407.483 61.1026 405.863 61.1522C404.537 61.1933 403.375 60.5494 403.307 59.9112C403.1 57.9903 406.922 57.037 408.65 55.6223C407.677 54.256 405.088 53.2428 403.948 51.769C403.176 50.7699 404.119 49.7529 405.355 49.675C408.02 49.5065 412.758 51.7651 413.696 52.1942C416.919 53.6674 419.968 55.4615 423.101 57.0511C423.806 56.5455 424.642 55.9105 425.347 55.4049C427.308 53.4686 430.102 52.346 431.476 49.8269C432.677 47.6287 435.595 45.4678 437.659 44.0326C437.243 42.5852 437.042 41.5682 436.248 40.4501C435.211 38.0262 434.916 36.3864 436.293 33.7952C437.258 31.9766 437.862 30.3374 439.532 28.964C440.891 27.8453 441.991 26.1965 442.897 24.6976C444.646 21.8034 445.228 17.6689 448.124 15.6412C448.409 15.4443 448.664 15.2085 448.882 14.9407C449.812 13.8078 450.834 13.2256 451.989 12.9529C452.779 12.7663 453.609 12.8725 454.53 12.8718C454.878 12.8718 455.409 13.0159 456.013 12.2491C457.942 10.2793 461.249 8.57586 464.2 8.67622C467.409 8.78494 466.559 11.7087 468.282 13.4321C468.41 13.6013 468.575 13.7404 468.763 13.8397C468.951 13.939 469.158 13.9962 469.371 14.0072C470.597 14.0992 472.146 13.2668 472.911 13.5846C473.145 13.6817 473.265 13.9436 473.221 14.4473C473.058 14.8886 472.864 15.1176 472.701 15.5582L472.702 15.5595C471.593 17.4116 469.814 17.7969 466.518 18.5502C466.214 18.6911 466.802 19.4875 466.782 20.0221C466.772 20.3026 466.188 20.511 465.88 20.5174C466.695 23.1768 465.619 25.862 466.491 28.4403C467.156 30.4075 468.331 32.0853 468.92 34.0769C469.286 35.3101 469.898 36.5652 469.899 37.8518C470.962 37.9078 472.054 38.1336 473.118 38.2481C476.006 38.5594 478.474 38.8258 481.543 40.4906C485.516 42.6463 489.487 47.0143 490.206 51.6609C490.363 52.676 490.785 54.9051 491.696 55.4673C492.162 55.7085 493.094 55.8095 494.033 55.8005C494.915 55.7922 495.802 55.6854 496.316 55.5059C498.29 54.7616 500.088 53.5895 501.941 52.6394C503.881 51.6442 505.583 50.952 507.849 51.0909C508.926 51.1566 509.945 51.3495 509.912 52.6747C509.867 54.5892 506.457 56.1306 505.237 57.1811C503.975 58.3699 502.56 59.6533 502.034 60.936C503.343 61.2474 506.64 61.6565 509.399 62.5481C511.757 63.3098 513.735 64.3333 513.618 66.3224C513.54 67.6604 512.507 67.8804 511.239 67.9268C508.991 68.0097 505.814 66.9721 504.877 67.0802C504.483 67.0686 503.527 67.3111 503.244 67.4951C503.947 69.268 507.598 70.6942 507.596 72.7335C507.596 73.7962 506.522 73.9635 505.513 73.9976C502.712 74.0941 500.239 71.7512 498.378 70.334C496.806 69.1368 495.307 69.8991 493.623 70.2787C492.43 70.7637 487.92 70.8364 486.522 70.4684C483.815 71.47 481.984 71.5189 479.084 71.344C478.178 70.9631 477.678 70.2722 477.692 69.5131C477.725 67.7177 479.874 65.3529 480.829 64.4523C479.531 63.3542 478.534 62.9849 478.07 61.201C477.817 60.2232 478.251 59.2776 478.702 60.0914C478.766 60.2078 479.157 60.238 479.204 60.4368C479.675 62.2297 480.567 62.6285 481.698 63.8109C482.273 63.587 482.141 62.9566 483.218 62.6626C483.553 62.6124 483.58 62.9778 483.388 63.331C483.141 63.7858 482.583 64.276 482.418 64.4079C481.746 64.9457 480.977 65.333 480.372 66.0805C479.972 66.5765 478.817 68.2214 478.883 68.8196C478.978 69.683 479.459 69.9782 480.048 70.1275C482.904 70.8551 486.722 69.5633 489.801 68.3886C490.371 68.1699 490.957 67.7074 491.424 67.7614C491.886 68.2613 490.003 69.2037 488.783 69.6463C489.728 69.9088 490.664 70.013 491.536 69.8245C493.319 69.4372 494.957 68.4446 496.79 68.5694C499.559 68.7579 501.703 72.9432 505.037 73.2082C505.078 73.2108 505.119 73.2134 505.159 73.2147C505.761 73.232 506.249 73.014 506.134 72.3906C505.74 70.2619 502.03 68.1918 501.445 67.3549C501.119 66.8898 504.283 66.2464 504.738 66.2342C506.681 66.1802 508.835 67.1818 510.626 66.9579C513.672 66.5758 510.986 63.9048 509.529 63.5105C507.242 62.891 504.454 62.0959 502.086 61.7093C502.023 62.3069 502.169 63.1123 501.816 63.2943C501.266 63.3021 501.13 62.3204 501.087 61.3381C501.055 60.6234 502.651 58.6336 503.121 58.0978C504.075 57.0027 505.184 56.0534 506.414 55.2801C506.414 54.8504 509.929 53.4506 508.144 52.4579C505.961 51.3045 503.145 53.044 501.215 54.0611L495.148 56.9199C494.21 57.2023 493.855 57.3554 492.938 57.6951C492.109 57.9768 492.885 56.9154 492.933 56.6092C492.052 56.6336 490.917 56.7494 489.923 56.8575C488.446 56.2174 488.972 52.6593 488.371 51.0678C486.857 47.1076 484.021 43.2723 480.284 41.3263C478.799 40.5537 477.306 39.8641 475.685 39.5508C473.727 39.1738 471.626 39.2381 469.684 38.9776C469.146 42.2816 467.982 44.0893 465.816 46.6316C465.502 47.0008 465.488 46.9545 465.407 46.8805C465.359 46.8368 465.015 47.0381 465.308 46.5859C466.965 44.032 468.963 41.0574 468.787 38.4514C468.628 36.1201 468.022 34.3973 466.845 32.3291C466.228 31.2438 465.833 30.2589 465.561 29.2219C464.82 26.3876 465.941 23.66 464.821 20.7336C464.655 19.4496 463.612 18.2672 463.354 17.5081C463.239 17.1716 463.584 16.9677 463.85 17.2913C464.363 17.9134 464.717 18.7831 465.23 19.4052C465.21 18.7535 465.334 18.0523 465.799 17.9327C466.19 17.8323 466.781 17.858 467.233 17.6406C467.681 17.7538 472.357 16.0574 472.109 14.7438C472.008 14.2035 470.116 15.07 469.684 15.1266V15.1279C469.615 15.133 469.545 15.1356 469.476 15.1356C465.899 15.1337 466.63 10.2131 463.921 10.0053C463.448 9.96925 462.902 9.90042 462.28 10.1018C458.666 10.28 456.914 14.1462 453.897 13.9834C452.512 13.9088 450.844 14.1764 449.881 15.3234C449.417 15.8747 448.82 16.5972 448.231 17.0102C447.024 17.8535 446.333 20.0144 445.575 21.4464C444.532 24.1154 442.871 26.8025 440.971 28.9344C440.155 29.8485 438.831 30.8398 438.324 31.9534C437.444 33.891 436.196 35.4369 436.615 37.6736C436.885 39.1165 438.09 41.8435 438.726 42.9423C438.964 43.3527 439.582 44.3575 440.164 45.271C440.678 46.0764 441.27 46.8632 440.75 47.2369C440.516 47.4055 439.387 45.4923 438.237 44.7274C436.797 45.7374 435.563 46.8329 434.202 47.9182C432.723 49.0973 432.096 50.8368 430.717 52.1614C429.687 53.1495 428.613 54.0533 427.425 54.8452C426.248 55.6294 425.233 56.842 424.025 57.5703C424.32 57.6931 426.072 58.0566 425.842 58.5243C425.553 59.111 424.012 58.6967 423.205 58.4394C421.925 58.0309 420.6 57.3901 419.929 56.8871C419.147 56.4638 412.244 52.6548 411.846 52.4612C409.923 51.5265 407.282 50.6535 405.981 50.6155C405.547 50.602 405.243 50.6252 405.131 50.9044C405.064 50.9744 405.02 51.0629 405.005 51.1583C404.989 51.2537 405.003 51.3516 405.044 51.439C405.378 52.2431 407.562 53.3045 408.561 54.1434C409.062 54.5648 411.255 56.303 411.064 57.477C410.976 58.018 409.506 56.7314 409.054 56.2026C408.306 56.6503 407.413 57.2415 406.67 57.6976V57.6957C406.419 57.8507 404.46 59.0363 404.63 59.2904C404.55 61.0505 408.646 60.2303 409.942 60.4696C410.787 60.6253 412.736 62.1686 412.199 62.6034C412.056 62.7051 411.846 62.4741 411.617 62.3506C411.113 62.0804 410.52 61.652 410.374 61.6243C409.889 62.5809 408.962 63.9717 408.134 64.6363C408.098 64.6652 407.64 65.0248 407.658 65.0583L407.667 65.2532C407.531 65.7961 407.757 66.0445 408.162 66.1178C409.054 66.2786 411.075 65.6791 411.785 65.4256C411.307 64.9007 411.336 63.8109 411.79 64.0374C412.638 64.4594 415.653 66.8216 416.779 67.5125C417.036 67.1368 417.012 66.6935 417.304 66.5726C418.18 66.2098 419.31 67.3651 420.225 67.7698C422.218 68.6505 422.668 70.0915 424.279 71.3208C424.719 71.656 425.406 71.6058 425.93 71.7242C426.773 70.5604 425.932 69.6244 425.7 68.4684C425.472 67.5832 426.267 65.9949 426.589 65.9081ZM450.467 20.7658C450.381 21.2457 450.174 21.4419 449.919 21.4805C449.689 21.5146 449.477 21.2534 449.531 20.7889C449.639 19.8368 450.775 18.8301 451.497 18.52C451.826 18.3785 452.083 18.3727 452.092 18.5779C452.099 18.7741 450.593 19.5004 450.528 20.2781C450.507 20.4403 450.487 20.603 450.467 20.7658ZM457.842 18.8018C458.04 18.5946 458.272 18.778 458.515 18.8236C459.57 19.0224 460.843 20.9317 460.476 21.3434C460.3 21.4444 459.573 20.8648 458.925 20.2318C458.276 19.5982 457.585 19.0327 457.842 18.8018Z" fill="black"/>
<path d="M499 52.326L492.803 40L429 72.4688L434.993 85L499 52.326Z" fill="#6835FF"/>
</svg>
