<svg width="200" height="200" viewBox="400 0 120 120" fill="none" xmlns="http://www.w3.org/2000/svg">
<path fill-rule="evenodd" clip-rule="evenodd" d="M464.171 38.6874C480.731 38.6874 494.239 52.1941 494.239 68.7546C494.239 85.317 480.731 98.8237 464.171 98.8237C447.609 98.8237 434.102 85.317 434.102 68.7546C434.102 52.1941 447.609 38.6874 464.171 38.6874Z" fill="black"/>
<path d="M507 72.5C507 83.5065 502.575 94.0622 494.698 101.845C486.822 109.628 476.139 114 465 114C453.861 114 443.178 109.628 435.302 101.845C427.425 94.0622 423 83.5065 423 72.5L465 72.5H507Z" fill="#6835FF"/>
<path d="M419 26L443 26V28L441.788 28.5977C440.081 29.4398 439 31.1783 439 33.0819V75H423V33.0819C423 31.1783 421.919 29.4398 420.212 28.5977L419 28V26Z" fill="#6835FF"/>
<path d="M487 26L511 26V27.9184L509.862 28.4569C508.114 29.2836 507 31.0435 507 32.9766V73H491V32.9766C491 31.0435 489.886 29.2836 488.138 28.4569L487 27.9184V26Z" fill="#6835FF"/>
<path d="M494.796 75.8811C496.049 75.4829 497.101 75.3594 498.377 76.332C500.238 77.7492 502.712 80.0928 505.513 79.9956C506.521 79.9615 507.596 79.7949 507.596 78.7315C507.597 76.6923 503.947 75.2661 503.243 73.4931C503.527 73.3098 504.482 73.0673 504.876 73.0782C505.814 72.9701 508.99 74.0078 511.238 73.9248C512.507 73.8785 513.54 73.6585 513.617 72.3204C513.735 70.3313 511.756 69.3072 509.398 68.5462C506.639 67.6545 503.342 67.2454 502.033 66.9341C502.559 65.6507 503.974 64.3679 505.236 63.1791C506.456 62.1286 509.866 60.5866 509.911 58.6728C509.944 57.3476 508.925 57.1546 507.848 57.089C505.583 56.95 503.88 57.6422 501.94 58.6374C500.087 59.5876 498.289 60.7597 496.315 61.504C495.801 61.6834 494.914 61.7902 494.032 61.7986C493.094 61.8082 492.161 61.7072 491.695 61.4654C490.784 60.9025 490.362 58.6734 490.205 57.659C489.487 53.0124 485.515 48.6444 481.542 46.4887C478.473 44.8238 476.006 44.5575 473.117 44.2461C472.053 44.1316 470.961 43.9058 469.898 43.8499C469.897 42.5633 469.285 41.3088 468.92 40.075C468.33 38.0833 467.156 36.4056 466.49 34.4384C465.618 31.86 466.693 29.1749 465.879 26.5155C466.188 26.5091 466.772 26.3006 466.781 26.0202C466.801 25.4856 466.213 24.6898 466.518 24.5483C469.813 23.795 471.593 23.4096 472.702 21.5576L472.7 21.5563C472.864 21.1156 473.057 20.8866 473.221 20.4453C473.263 19.9416 473.144 19.6798 472.911 19.5826C472.146 19.2649 470.596 20.0973 469.37 20.0053C469.158 19.9944 468.95 19.9373 468.762 19.8379C468.574 19.7386 468.41 19.5995 468.281 19.4302C466.558 17.7068 467.409 14.783 464.2 14.6743C461.248 14.5739 457.942 16.2774 456.012 18.2472C455.408 19.014 454.877 18.8699 454.529 18.8699C453.608 18.8705 452.778 18.7644 451.988 18.9509C450.834 19.2237 449.812 19.8059 448.882 20.9387C448.663 21.2065 448.408 21.4424 448.124 21.6393C445.227 23.667 444.645 27.8015 442.896 30.6957C441.99 32.1952 440.89 33.844 439.531 34.962C437.862 36.3348 437.258 37.9746 436.292 39.7932C434.915 42.3844 435.209 44.0242 436.247 46.4482C437.042 47.5662 437.243 48.5833 437.658 50.0307C435.594 51.4653 432.676 53.6267 431.476 55.8249C430.101 58.3441 427.308 59.4666 425.346 61.403C424.641 61.9086 423.806 62.5435 423.101 63.0492C419.968 61.4596 416.918 59.6654 413.696 58.1922C412.758 57.7632 408.02 55.5052 405.354 55.6731C404.118 55.7516 403.175 56.7686 403.948 57.767C405.087 59.2415 407.676 60.2547 408.649 61.6204C406.921 63.0357 403.1 63.989 403.306 65.9093C403.374 66.5474 404.536 67.1914 405.863 67.1502C407.483 67.1007 408.853 67.026 409.477 67.2377C409.443 68.6684 407.448 69.7388 406.661 70.8434C406.276 71.3825 406.162 71.9557 406.671 72.6324C407.574 73.8978 411.636 72.4002 412.689 72.0798C413.858 72.6292 416.693 74.7411 417.899 74.5514C418.328 74.6453 418.801 74.4382 419.23 74.534C421.517 75.5453 422.468 78.2304 424.937 78.7077C425.435 78.8042 425.882 79.0178 426.344 78.6711C427.627 77.7955 427.447 76.2889 426.724 74.4922C427.793 74.1667 429.451 73.7408 430.342 73.0975V73.0988C431.651 72.1525 433.117 71.4507 434.465 70.5623C435.601 69.8122 436.635 69.6147 437.942 69.3445C438.043 70.6099 438.341 71.7833 438.802 72.9644C439.422 74.5578 439.909 76.4118 440.76 77.876C442.962 81.6682 445.911 85.7828 449.79 88.0131L449.645 88.3231L449.336 88.9793H449.338C448.855 89.6779 446.248 91.4631 445.661 92.4763C450.773 96.477 457.201 98.8668 464.171 98.8668C478.366 98.8668 490.321 88.9562 493.471 75.7003L494.749 76.1789L494.796 75.8811Z" fill="white"/>
<path d="M451.884 38.3703C452 37.9791 453.096 39.0052 453.893 38.9383C454.16 38.9164 454.415 38.7646 454.563 38.3458C454.718 37.9039 454.936 37.6575 455.109 37.6684C455.246 37.6774 455.291 38.2969 455.149 38.8038C454.988 39.3783 454.269 40.1059 453.65 40.0737C452.916 40.0358 451.691 39.0161 451.884 38.3703ZM458.587 30.1096C458.687 30.3805 458.669 30.6905 458.615 31.3821C458.561 32.0736 457.981 33.0116 457.559 32.9871C457.137 32.9627 456.616 32.0267 456.712 30.982C456.791 30.1289 457.304 29.0212 458.306 29.1157C458.644 29.1479 458.964 29.4586 459.16 29.8723C459.358 30.2859 459.428 30.8031 459.405 31.0875C459.396 31.2032 459.34 31.2213 459.309 31.2245C459.26 31.2296 459.219 31.1646 459.15 30.991C459.033 30.697 458.923 30.2402 458.587 30.1096ZM451.624 29.2187C451.746 29.4187 451.859 29.6387 451.859 30.3309C451.859 31.0231 451.313 32.1869 450.882 32.2016C450.451 32.2164 449.834 31.3145 449.834 30.2447C449.834 29.3711 450.221 28.2003 451.279 28.2003C451.626 28.2003 451.98 28.4866 452.218 28.888C452.456 29.2901 452.575 29.8041 452.559 30.0993C452.56 30.2029 452.437 30.1823 452.409 30.0993C452.351 29.9721 452.284 29.8493 452.207 29.732C452.048 29.4901 451.832 29.2444 451.624 29.2187ZM452.406 43.7714C453.297 43.7714 454.025 44.8509 454.025 46.1735C454.025 47.4968 453.297 48.5756 452.406 48.5756C451.514 48.5756 450.787 47.4968 450.787 46.1735C450.787 44.8515 451.514 43.7714 452.406 43.7714ZM426.589 71.9081C427.005 71.7974 426.568 73.304 426.629 73.5852C427.735 73.3098 429.371 72.9406 430.23 72.0824C432.864 70.1274 435.498 68.9347 438.132 68.0193C438.728 67.9074 441.689 67.4661 441.45 68.0669C441.101 68.4426 440.207 68.7791 439.357 68.9437C439.341 70.8408 439.943 73.0383 440.957 74.81C442.756 79.3144 446.442 83.7294 450.579 86.3379C452.81 87.7442 458.325 89.9752 463.292 91.1151C467.74 92.1341 470.043 91.9482 471.247 92.3624C471.506 93.202 468.606 92.8584 466.756 92.7278C461.42 92.3496 453.192 89.4007 450.961 88.2235C450.214 89.9977 447.902 91.449 446.511 92.7131C446.162 93.0308 445.812 93.3486 445.583 92.9781C445.118 92.2254 448.758 89.8208 449.338 88.9813H449.336L449.791 88.015C445.911 85.7847 442.963 81.6702 440.761 77.8779C439.91 76.4144 439.423 74.5598 438.802 72.9663C438.342 71.7852 438.043 70.6118 437.942 69.3465C436.636 69.6166 435.601 69.8141 434.465 70.5642C433.117 71.4526 431.651 72.1551 430.342 73.1008V73.0995C429.452 73.7428 427.794 74.1686 426.724 74.4941C427.448 76.2909 427.628 77.7975 426.345 78.673C425.883 79.0198 425.436 78.8062 424.938 78.7097C422.47 78.2324 421.519 75.5472 419.231 74.536C418.801 74.4407 418.329 74.6479 417.9 74.5533C416.693 74.7431 413.858 72.6311 412.69 72.0818C411.636 72.4021 407.574 73.8997 406.671 72.6344C406.163 71.957 406.276 71.3844 406.662 70.8453C407.449 69.7408 409.443 68.6703 409.477 67.2396C408.854 67.028 407.483 67.1026 405.863 67.1522C404.537 67.1933 403.375 66.5494 403.307 65.9112C403.1 63.9903 406.922 63.037 408.65 61.6223C407.677 60.256 405.088 59.2428 403.948 57.769C403.176 56.7699 404.119 55.7529 405.355 55.675C408.02 55.5065 412.758 57.7651 413.696 58.1942C416.919 59.6674 419.968 61.4615 423.101 63.0511C423.806 62.5455 424.642 61.9105 425.347 61.4049C427.308 59.4686 430.102 58.346 431.476 55.8269C432.677 53.6287 435.595 51.4678 437.659 50.0326C437.243 48.5852 437.042 47.5682 436.248 46.4501C435.211 44.0262 434.916 42.3864 436.293 39.7952C437.258 37.9766 437.862 36.3374 439.532 34.964C440.891 33.8453 441.991 32.1965 442.897 30.6976C444.646 27.8034 445.228 23.6689 448.124 21.6412C448.409 21.4443 448.664 21.2085 448.882 20.9407C449.812 19.8078 450.834 19.2256 451.989 18.9529C452.779 18.7663 453.609 18.8725 454.53 18.8718C454.878 18.8718 455.409 19.0159 456.013 18.2491C457.942 16.2793 461.249 14.5759 464.2 14.6762C467.409 14.7849 466.559 17.7087 468.282 19.4321C468.41 19.6013 468.575 19.7404 468.763 19.8397C468.951 19.939 469.158 19.9962 469.371 20.0072C470.597 20.0992 472.146 19.2668 472.911 19.5846C473.145 19.6817 473.265 19.9436 473.221 20.4473C473.058 20.8886 472.864 21.1176 472.701 21.5582L472.702 21.5595C471.593 23.4116 469.814 23.7969 466.518 24.5502C466.214 24.6911 466.802 25.4875 466.782 26.0221C466.772 26.3026 466.188 26.511 465.88 26.5174C466.695 29.1768 465.619 31.862 466.491 34.4403C467.156 36.4075 468.331 38.0853 468.92 40.0769C469.286 41.3101 469.898 42.5652 469.899 43.8518C470.962 43.9078 472.054 44.1336 473.118 44.2481C476.006 44.5594 478.474 44.8258 481.543 46.4906C485.516 48.6463 489.487 53.0143 490.206 57.6609C490.363 58.676 490.785 60.9051 491.696 61.4673C492.162 61.7085 493.094 61.8095 494.033 61.8005C494.915 61.7922 495.802 61.6854 496.316 61.5059C498.29 60.7616 500.088 59.5895 501.941 58.6394C503.881 57.6442 505.583 56.952 507.849 57.0909C508.926 57.1566 509.945 57.3495 509.912 58.6747C509.867 60.5892 506.457 62.1306 505.237 63.1811C503.975 64.3699 502.56 65.6533 502.034 66.936C503.343 67.2474 506.64 67.6565 509.399 68.5481C511.757 69.3098 513.735 70.3333 513.618 72.3224C513.54 73.6604 512.507 73.8804 511.239 73.9268C508.991 74.0097 505.814 72.9721 504.877 73.0802C504.483 73.0686 503.527 73.3111 503.244 73.4951C503.947 75.268 507.598 76.6942 507.596 78.7335C507.596 79.7962 506.522 79.9635 505.513 79.9976C502.712 80.0941 500.239 77.7512 498.378 76.334C496.806 75.1368 495.307 75.8991 493.623 76.2787C492.43 76.7637 487.92 76.8364 486.522 76.4684C483.815 77.47 481.984 77.5189 479.084 77.344C478.178 76.9631 477.678 76.2722 477.692 75.5131C477.725 73.7177 479.874 71.3529 480.829 70.4523C479.531 69.3542 478.534 68.9849 478.07 67.201C477.817 66.2232 478.251 65.2776 478.702 66.0914C478.766 66.2078 479.157 66.238 479.204 66.4368C479.675 68.2297 480.567 68.6285 481.698 69.8109C482.273 69.587 482.141 68.9566 483.218 68.6626C483.553 68.6124 483.58 68.9778 483.388 69.331C483.141 69.7858 482.583 70.276 482.418 70.4079C481.746 70.9457 480.977 71.333 480.372 72.0805C479.972 72.5765 478.817 74.2214 478.883 74.8196C478.978 75.683 479.459 75.9782 480.048 76.1275C482.904 76.8551 486.722 75.5633 489.801 74.3886C490.371 74.1699 490.957 73.7074 491.424 73.7614C491.886 74.2613 490.003 75.2037 488.783 75.6463C489.728 75.9088 490.664 76.013 491.536 75.8245C493.319 75.4372 494.957 74.4446 496.79 74.5694C499.559 74.7579 501.703 78.9432 505.037 79.2082C505.078 79.2108 505.119 79.2134 505.159 79.2147C505.761 79.232 506.249 79.014 506.134 78.3906C505.74 76.2619 502.03 74.1918 501.445 73.3549C501.119 72.8898 504.283 72.2464 504.738 72.2342C506.681 72.1802 508.835 73.1818 510.626 72.9579C513.672 72.5758 510.986 69.9048 509.529 69.5105C507.242 68.891 504.454 68.0959 502.086 67.7093C502.023 68.3069 502.169 69.1123 501.816 69.2943C501.266 69.3021 501.13 68.3204 501.087 67.3381C501.055 66.6234 502.651 64.6336 503.121 64.0978C504.075 63.0027 505.184 62.0534 506.414 61.2801C506.414 60.8504 509.929 59.4506 508.144 58.4579C505.961 57.3045 503.145 59.044 501.215 60.0611L495.148 62.9199C494.21 63.2023 493.855 63.3554 492.938 63.6951C492.109 63.9768 492.885 62.9154 492.933 62.6092C492.052 62.6336 490.917 62.7494 489.923 62.8575C488.446 62.2174 488.972 58.6593 488.371 57.0678C486.857 53.1076 484.021 49.2723 480.284 47.3263C478.799 46.5537 477.306 45.8641 475.685 45.5508C473.727 45.1738 471.626 45.2381 469.684 44.9776C469.146 48.2816 467.982 50.0893 465.816 52.6316C465.502 53.0008 465.488 52.9545 465.407 52.8805C465.359 52.8368 465.015 53.0381 465.308 52.5859C466.965 50.032 468.963 47.0574 468.787 44.4514C468.628 42.1201 468.022 40.3973 466.845 38.3291C466.228 37.2438 465.833 36.2589 465.561 35.2219C464.82 32.3876 465.941 29.66 464.821 26.7336C464.655 25.4496 463.612 24.2672 463.354 23.5081C463.239 23.1716 463.584 22.9677 463.85 23.2913C464.363 23.9134 464.717 24.7831 465.23 25.4052C465.21 24.7535 465.334 24.0523 465.799 23.9327C466.19 23.8323 466.781 23.858 467.233 23.6406C467.681 23.7538 472.357 22.0574 472.109 20.7438C472.008 20.2035 470.116 21.07 469.684 21.1266V21.1279C469.615 21.133 469.545 21.1356 469.476 21.1356C465.899 21.1337 466.63 16.2131 463.921 16.0053C463.448 15.9693 462.902 15.9004 462.28 16.1018C458.666 16.28 456.914 20.1462 453.897 19.9834C452.512 19.9088 450.844 20.1764 449.881 21.3234C449.417 21.8747 448.82 22.5972 448.231 23.0102C447.024 23.8535 446.333 26.0144 445.575 27.4464C444.532 30.1154 442.871 32.8025 440.971 34.9344C440.155 35.8485 438.831 36.8398 438.324 37.9534C437.444 39.891 436.196 41.4369 436.615 43.6736C436.885 45.1165 438.09 47.8435 438.726 48.9423C438.964 49.3527 439.582 50.3575 440.164 51.271C440.678 52.0764 441.27 52.8632 440.75 53.2369C440.516 53.4055 439.387 51.4923 438.237 50.7274C436.797 51.7374 435.563 52.8329 434.202 53.9182C432.723 55.0973 432.096 56.8368 430.717 58.1614C429.687 59.1495 428.613 60.0533 427.425 60.8452C426.248 61.6294 425.233 62.842 424.025 63.5703C424.32 63.6931 426.072 64.0566 425.842 64.5243C425.553 65.111 424.012 64.6967 423.205 64.4394C421.925 64.0309 420.6 63.3901 419.929 62.8871C419.147 62.4638 412.244 58.6548 411.846 58.4612C409.923 57.5265 407.282 56.6535 405.981 56.6155C405.547 56.602 405.243 56.6252 405.131 56.9044C405.064 56.9744 405.02 57.0629 405.005 57.1583C404.989 57.2537 405.003 57.3516 405.044 57.439C405.378 58.2431 407.562 59.3045 408.561 60.1434C409.062 60.5648 411.255 62.303 411.064 63.477C410.976 64.018 409.506 62.7314 409.054 62.2026C408.306 62.6503 407.413 63.2415 406.67 63.6976V63.6957C406.419 63.8507 404.46 65.0363 404.63 65.2904C404.55 67.0505 408.646 66.2303 409.942 66.4696C410.787 66.6253 412.736 68.1686 412.199 68.6034C412.056 68.7051 411.846 68.4741 411.617 68.3506C411.113 68.0804 410.52 67.652 410.374 67.6243C409.889 68.5809 408.962 69.9717 408.134 70.6363C408.098 70.6652 407.64 71.0248 407.658 71.0583L407.667 71.2532C407.531 71.7961 407.757 72.0445 408.162 72.1178C409.054 72.2786 411.075 71.6791 411.785 71.4256C411.307 70.9007 411.336 69.8109 411.79 70.0374C412.638 70.4594 415.653 72.8216 416.779 73.5125C417.036 73.1368 417.012 72.6935 417.304 72.5726C418.18 72.2098 419.31 73.3651 420.225 73.7698C422.218 74.6505 422.668 76.0915 424.279 77.3208C424.719 77.656 425.406 77.6058 425.93 77.7242C426.773 76.5604 425.932 75.6244 425.7 74.4684C425.472 73.5832 426.267 71.9949 426.589 71.9081ZM450.467 26.7658C450.381 27.2457 450.174 27.4419 449.919 27.4805C449.689 27.5146 449.477 27.2534 449.531 26.7889C449.639 25.8368 450.775 24.8301 451.497 24.52C451.826 24.3785 452.083 24.3727 452.092 24.5779C452.099 24.7741 450.593 25.5004 450.528 26.2781C450.507 26.4403 450.487 26.603 450.467 26.7658ZM457.842 24.8018C458.04 24.5946 458.272 24.778 458.515 24.8236C459.57 25.0224 460.843 26.9317 460.476 27.3434C460.3 27.4444 459.573 26.8648 458.925 26.2318C458.276 25.5982 457.585 25.0327 457.842 24.8018Z" fill="black"/>
<path d="M499 58.326L492.803 46L429 78.4688L434.993 91L499 58.326Z" fill="#6835FF"/>
</svg>
